<svg xmlns="http://www.w3.org/2000/svg" width="980" height="360" viewBox="0 0 980 360" role="img" aria-label="Sinusoidal positional signals across selected embedding dimensions">
<rect width="100%" height="100%" rx="18" fill="#0f1524" />
<rect x="58.00" y="24.00" width="898.00" height="294.00" rx="14" fill="#121a2c" stroke="#31415f" stroke-width="1.2" />
<line x1="58.00" y1="318.00" x2="956.00" y2="318.00" stroke="#2b3852" stroke-width="1" />
<text x="48.00" y="322.00" fill="#8ea1c8" font-size="11" font-family="Inter, Arial, sans-serif" font-weight="400" text-anchor="end">-1</text>
<line x1="58.00" y1="171.00" x2="956.00" y2="171.00" stroke="#2b3852" stroke-width="1" />
<text x="48.00" y="175.00" fill="#8ea1c8" font-size="11" font-family="Inter, Arial, sans-serif" font-weight="400" text-anchor="end">0</text>
<line x1="58.00" y1="24.00" x2="956.00" y2="24.00" stroke="#2b3852" stroke-width="1" />
<text x="48.00" y="28.00" fill="#8ea1c8" font-size="11" font-family="Inter, Arial, sans-serif" font-weight="400" text-anchor="end">1</text>
<line x1="58.00" y1="24.00" x2="58.00" y2="318.00" stroke="#243149" stroke-width="1" stroke-dasharray="4 6" />
<text x="58.00" y="348.00" fill="#8ea1c8" font-size="11" font-family="Inter, Arial, sans-serif" font-weight="400" text-anchor="middle">0</text>
<line x1="237.60" y1="24.00" x2="237.60" y2="318.00" stroke="#243149" stroke-width="1" stroke-dasharray="4 6" />
<text x="237.60" y="348.00" fill="#8ea1c8" font-size="11" font-family="Inter, Arial, sans-serif" font-weight="400" text-anchor="middle">20</text>
<line x1="417.20" y1="24.00" x2="417.20" y2="318.00" stroke="#243149" stroke-width="1" stroke-dasharray="4 6" />
<text x="417.20" y="348.00" fill="#8ea1c8" font-size="11" font-family="Inter, Arial, sans-serif" font-weight="400" text-anchor="middle">40</text>
<line x1="596.80" y1="24.00" x2="596.80" y2="318.00" stroke="#243149" stroke-width="1" stroke-dasharray="4 6" />
<text x="596.80" y="348.00" fill="#8ea1c8" font-size="11" font-family="Inter, Arial, sans-serif" font-weight="400" text-anchor="middle">60</text>
<line x1="776.40" y1="24.00" x2="776.40" y2="318.00" stroke="#243149" stroke-width="1" stroke-dasharray="4 6" />
<text x="776.40" y="348.00" fill="#8ea1c8" font-size="11" font-family="Inter, Arial, sans-serif" font-weight="400" text-anchor="middle">80</text>
<line x1="956.00" y1="24.00" x2="956.00" y2="318.00" stroke="#243149" stroke-width="1" stroke-dasharray="4 6" />
<text x="956.00" y="348.00" fill="#8ea1c8" font-size="11" font-family="Inter, Arial, sans-serif" font-weight="400" text-anchor="middle">100</text>
<text x="490.00" y="348.00" fill="#8ea1c8" font-size="11" font-family="Inter, Arial, sans-serif" font-weight="600" text-anchor="middle">position</text>
<line x1="381.28" y1="24.00" x2="381.28" y2="318.00" stroke="#d7deea" stroke-width="1.5" stroke-dasharray="6 5" />
<rect x="329.28" y="34.00" width="104" height="22" rx="6" fill="#1a2440" stroke="#6175a8" />
<text x="381.28" y="49.00" fill="#dce6ff" font-size="11" font-family="Inter, Arial, sans-serif" font-weight="600" text-anchor="middle">pos = 36</text>
<polyline fill="none" stroke="#b49dff" stroke-width="3" points="58.00,171.00 60.24,134.63 62.49,100.52 64.73,70.80 66.98,47.30 69.22,31.50 71.47,24.37 73.72,26.35 75.96,37.33 78.20,56.62 80.45,83.02 82.69,114.90 84.94,150.26 87.19,186.90 89.43,222.57 91.67,255.02 93.92,282.25 96.17,302.56 98.41,314.70 100.66,317.90 102.90,311.96 105.14,297.26 107.39,274.71 109.64,245.72 111.88,212.07 114.12,175.88 116.37,139.38 118.62,104.84 120.86,74.42 123.10,50.01 125.35,33.11 127.59,24.79 129.84,25.56 132.09,35.38 134.33,53.62 136.57,79.17 138.82,110.42 141.06,145.44 143.31,182.05 145.56,217.97 147.80,250.97 150.04,279.00 152.29,300.32 154.53,313.59 156.78,318.00 159.03,313.27 161.27,299.69 163.51,278.11 165.76,249.88 168.00,216.73 170.25,180.75 172.50,144.16 174.74,109.24 176.99,78.15 179.23,52.84 181.48,34.88 183.72,25.38 185.96,24.93 188.21,33.57 190.45,50.75 192.70,75.41 194.94,106.01 197.19,140.65 199.44,177.18 201.68,213.32 203.93,246.83 206.17,275.63 208.42,297.92 210.66,312.33 212.91,317.94 215.15,314.42 217.39,301.98 219.64,281.40 221.88,253.95 224.13,221.34 226.38,185.61 228.62,148.97 230.87,113.70 233.11,81.99 235.36,55.81 237.60,36.80 239.84,26.13 242.09,24.47 244.33,31.92 246.58,48.01 248.82,71.76 251.07,101.67 253.31,135.89 255.56,172.30 257.81,208.63 260.05,242.61 262.30,272.15 264.54,295.39 266.79,310.91 269.03,317.72 271.27,315.41 273.52,304.12 275.76,284.55 278.01,257.93 280.25,225.90 282.50,190.46 284.75,153.80 286.99,118.22 289.24,85.92 291.48,58.90 293.73,38.86 295.97,27.03 298.22,24.16 300.46,30.41 302.71,45.41 304.95,68.21 307.20,97.41 309.44,131.18 311.68,167.42 313.93,203.89 316.17,238.32 318.42,268.55 320.66,292.73 322.91,309.33 325.15,317.34 327.40,316.24 329.64,306.12 331.89,287.59 334.13,261.81 336.38,230.39 338.62,195.28 340.87,158.66 343.12,122.80 345.36,89.94 347.61,62.12 349.85,41.07 352.10,28.10 354.34,24.01 356.59,29.07 358.83,42.94 361.08,64.78 363.32,93.22 365.56,126.50 367.81,162.55 370.05,199.12 372.30,233.94 374.54,264.85 376.79,289.93 379.03,307.61 381.28,316.79 383.52,316.91 385.77,307.96 388.01,290.50 390.26,265.60 392.50,234.82 394.75,200.08 397.00,163.52 399.24,127.43 401.49,94.05 403.73,65.46 405.98,43.42 408.22,29.32 410.47,24.03 412.71,27.87 414.96,40.62 417.20,61.47 419.45,89.13 421.69,121.88 423.94,157.68 426.18,194.32 428.42,229.50 430.67,261.05 432.91,286.99 435.16,305.73 437.40,316.09 439.65,317.42 441.89,309.66 444.14,293.27 446.38,269.28 448.63,239.18 450.88,204.84 453.12,168.40 455.37,132.12 457.61,98.25 459.86,68.91 462.10,45.92 464.35,30.70 466.59,24.21 468.84,26.84 471.08,38.44 473.33,58.28 475.57,85.12 477.81,117.31 480.06,152.83 482.30,189.49 484.55,224.99 486.79,257.14 489.04,283.93 491.28,303.70 493.53,315.22 495.77,317.78 498.02,311.20 500.26,295.91 502.51,272.85 504.75,243.46 507.00,209.57 509.24,173.28 511.49,136.84 513.73,102.53 515.98,72.48 518.22,48.55 520.47,32.23 522.71,24.55 524.96,25.97 527.20,36.40 529.45,55.21 531.69,81.21 533.94,112.80 536.18,148.00 538.43,184.64 540.67,220.43 542.92,253.14 545.16,280.75 547.41,301.53 549.65,314.20 551.90,317.96 554.14,312.59 556.39,298.41 558.63,276.31 560.88,247.67 563.12,214.25 565.37,178.15 567.62,141.60 569.86,106.88 572.11,76.15 574.35,51.31 576.60,33.92 578.84,25.05 581.09,25.25 583.33,34.52 585.58,52.27 587.82,77.40 590.07,108.35 592.31,143.20 594.56,179.78 596.80,215.81 599.05,249.05 601.29,277.44 603.54,299.22 605.78,313.02 608.03,317.99 610.27,313.82 612.52,300.78 614.76,279.66 617.00,251.79 619.25,218.89 621.50,183.02 623.74,146.40 625.98,111.31 628.23,79.93 630.47,54.21 632.72,35.76 634.96,25.71 637.21,24.70 639.45,32.78 641.70,49.46 643.94,73.69 646.19,103.97 648.43,138.43 650.68,174.90 652.92,211.14 655.17,244.88 657.41,274.02 659.66,296.76 661.90,311.68 664.15,317.86 666.39,314.90 668.64,303.00 670.88,282.88 673.13,255.82 675.38,223.48 677.62,187.87 679.87,151.22 682.11,115.80 684.36,83.81 686.60,57.24 688.85,37.74 691.09,26.53 693.34,24.30 695.58,31.19 697.83,46.78 700.07,70.09 702.32,99.67 704.56,133.69 706.81,170.03 709.05,206.42 711.30,240.62 713.54,270.49 715.79,294.17 718.03,310.19 720.28,317.56 722.52,315.82 724.77,305.07 727.01,285.99 729.25,259.75 731.50,228.00 733.75,192.71 735.99,156.06 738.23,120.35 740.48,87.78 742.72,60.39 744.97,39.87 747.21,27.51 749.46,24.07 751.70,29.76 753.95,44.24 756.19,66.60 758.44,95.45 760.68,128.99 762.93,165.15 765.17,201.67 767.42,236.28 769.66,266.84 771.91,291.44 774.15,308.55 776.40,317.10 778.64,316.57 780.89,307.00 783.13,288.96 785.38,263.59 787.62,232.47 789.87,197.52 792.12,160.93 794.36,124.96 796.61,91.85 798.85,63.66 801.10,42.15 803.34,28.65 805.59,24.00 807.83,28.49 810.08,41.84 812.32,63.22 814.57,91.30 816.81,124.34 819.06,160.28 821.30,196.88 823.55,231.88 825.79,263.09 828.04,288.57 830.28,306.75 832.53,316.48 834.77,317.17 837.02,308.77 839.26,291.81 841.50,267.33 843.75,236.86 846.00,202.30 848.24,165.80 850.48,129.61 852.73,96.00 854.97,67.05 857.22,44.57 859.46,29.95 861.71,24.09 863.95,27.37 866.20,39.58 868.44,59.96 870.69,87.25 872.93,119.74 875.18,155.42 877.42,192.07 879.67,227.41 881.91,259.24 884.16,285.58 886.40,304.80 888.65,315.70 890.89,317.61 893.14,310.40 895.38,294.52 897.63,270.96 899.88,241.19 902.12,207.05 904.37,170.67 906.61,134.32 908.86,100.24 911.10,70.56 913.35,47.13 915.59,31.40 917.84,24.35 920.08,26.41 922.33,37.47 924.57,56.83 926.82,83.29 929.06,115.20 931.31,150.58 933.55,187.23 935.80,222.87 938.04,255.29 940.29,282.46 942.53,302.71 944.78,314.77 947.02,317.88 949.27,311.87 951.51,297.10 953.75,274.48 956.00,245.44" />
<circle cx="381.28" cy="316.79" r="4.8" fill="#b49dff" stroke="#0f1524" stroke-width="1.6" />
<polyline fill="none" stroke="#7b9aff" stroke-width="3" points="58.00,171.00 60.24,143.60 62.49,117.17 64.73,92.61 66.98,70.81 69.22,52.52 71.47,38.38 73.72,28.88 75.96,24.37 78.20,25.00 80.45,30.74 82.69,41.39 84.94,56.59 87.19,75.80 89.43,98.35 91.67,123.44 93.92,150.19 96.17,177.68 98.41,204.93 100.66,231.00 102.90,254.96 105.14,275.97 107.39,293.31 109.64,306.37 111.88,314.68 114.12,317.95 116.37,316.08 118.62,309.12 120.86,297.32 123.10,281.09 125.35,261.01 127.59,237.77 129.84,212.19 132.09,185.17 134.33,157.65 136.57,130.60 138.82,104.97 141.06,81.65 143.31,61.46 145.56,45.11 147.80,33.17 150.04,26.06 152.29,24.03 154.53,27.15 156.78,35.31 159.03,48.23 161.27,65.45 163.51,86.36 165.76,110.25 168.00,136.26 170.25,163.49 172.50,190.98 174.74,217.78 176.99,242.93 179.23,265.56 181.48,284.88 183.72,300.21 185.96,311.01 188.21,316.91 190.45,317.69 192.70,313.33 194.94,303.98 197.19,289.97 199.44,271.79 201.68,250.09 203.93,225.61 206.17,199.21 208.42,171.83 210.66,144.42 212.91,117.94 215.15,93.32 217.39,71.42 219.64,53.01 221.88,38.74 224.13,29.10 226.38,24.43 228.62,24.90 230.87,30.49 233.11,41.01 235.36,56.07 237.60,75.17 239.84,97.63 242.09,122.65 244.33,149.37 246.58,176.85 248.82,204.12 251.07,230.24 253.31,254.27 255.56,275.39 257.81,292.85 260.05,306.04 262.30,314.50 264.54,317.93 266.79,316.21 269.03,309.40 271.27,297.74 273.52,281.64 275.76,261.66 278.01,238.51 280.25,212.99 282.50,186.00 284.75,158.48 286.99,131.40 289.24,105.71 291.48,82.31 293.73,62.01 295.97,45.54 298.22,33.46 300.46,26.20 302.71,24.01 304.95,26.98 307.20,34.99 309.44,47.77 311.68,64.87 313.93,85.69 316.17,109.49 318.42,135.46 320.66,162.66 322.91,190.16 325.15,216.99 327.40,242.21 329.64,264.93 331.89,284.36 334.13,299.81 336.38,310.76 338.62,316.80 340.87,317.74 343.12,313.53 345.36,304.33 347.61,290.46 349.85,272.40 352.10,250.78 354.34,226.38 356.59,200.03 358.83,172.66 361.08,145.23 363.32,118.71 365.56,94.02 367.81,72.03 370.05,53.51 372.30,39.10 374.54,29.32 376.79,24.50 379.03,24.81 381.28,30.25 383.52,40.62 385.77,55.56 388.01,74.54 390.26,96.91 392.50,121.87 394.75,148.55 397.00,176.02 399.24,203.32 401.49,229.48 403.73,253.59 405.98,274.81 408.22,292.39 410.47,305.71 412.71,314.32 414.96,317.90 417.20,316.34 419.45,309.68 421.69,298.16 423.94,282.19 426.18,262.32 428.42,239.25 430.67,213.78 432.91,186.82 435.16,159.31 437.40,132.20 439.65,106.45 441.89,82.97 444.14,62.57 446.38,45.97 448.63,33.75 450.88,26.34 453.12,24.01 455.37,26.82 457.61,34.68 459.86,47.32 462.10,64.30 464.35,85.01 466.59,108.74 468.84,134.65 471.08,161.84 473.33,189.34 475.57,216.20 477.81,241.48 480.06,264.29 482.30,283.83 484.55,299.41 486.79,310.50 489.04,316.69 491.28,317.79 493.53,313.73 495.77,304.68 498.02,290.94 500.26,273.00 502.51,251.48 504.75,227.14 507.00,200.84 509.24,173.49 511.49,146.05 513.73,119.49 515.98,94.73 518.22,72.65 520.47,54.01 522.71,39.47 524.96,29.54 527.20,24.57 529.45,24.73 531.69,30.01 533.94,40.24 536.18,55.05 538.43,73.92 540.67,96.19 542.92,121.09 545.16,147.73 547.41,175.19 549.65,202.51 551.90,228.71 554.14,252.90 556.39,274.22 558.63,291.92 560.88,305.38 563.12,314.13 565.37,317.87 567.62,316.46 569.86,309.95 572.11,298.57 574.35,282.73 576.60,262.96 578.84,239.98 581.09,214.58 583.33,187.65 585.58,160.13 587.82,133.00 590.07,107.20 592.31,83.64 594.56,63.13 596.80,46.41 599.05,34.05 601.29,26.49 603.54,24.00 605.78,26.66 608.03,34.37 610.27,46.88 612.52,63.73 614.76,84.34 617.00,107.99 619.25,133.85 621.50,161.01 623.74,188.52 625.98,215.41 628.23,240.75 630.47,263.65 632.72,283.29 634.96,299.01 637.21,310.23 639.45,316.58 641.70,317.83 643.94,313.93 646.19,305.02 648.43,291.42 650.68,273.59 652.92,252.17 655.17,227.91 657.41,201.65 659.66,174.32 661.90,146.87 664.15,120.27 666.39,95.44 668.64,73.26 670.88,54.51 673.13,39.84 675.38,29.77 677.62,24.64 679.87,24.65 682.11,29.78 684.36,39.86 686.60,54.54 688.85,73.30 691.09,95.48 693.34,120.31 695.58,146.91 697.83,174.36 700.07,201.70 702.32,227.95 704.56,252.21 706.81,273.63 709.05,291.44 711.30,305.04 713.54,313.94 715.79,317.83 718.03,316.57 720.28,310.22 722.52,298.98 724.77,283.26 727.01,263.61 729.25,240.71 731.50,215.37 733.75,188.47 735.99,160.96 738.23,133.80 740.48,107.95 742.72,84.30 744.97,63.70 747.21,46.85 749.46,34.36 751.70,26.65 753.95,24.00 756.19,26.50 758.44,34.07 760.68,46.43 762.93,63.16 765.17,83.67 767.42,107.24 769.66,133.05 771.91,160.18 774.15,187.69 776.40,214.62 778.64,240.02 780.89,263.00 783.13,282.76 785.38,298.60 787.62,309.97 789.87,316.46 792.12,317.87 794.36,314.12 796.61,305.36 798.85,291.89 801.10,274.18 803.34,252.86 805.59,228.67 807.83,202.46 810.08,175.15 812.32,147.69 814.57,121.05 816.81,96.15 819.06,73.88 821.30,55.02 823.55,40.22 825.79,30.00 828.04,24.72 830.28,24.57 832.53,29.55 834.77,39.49 837.02,54.04 839.26,72.68 841.50,94.77 843.75,119.53 846.00,146.10 848.24,173.53 850.48,200.88 852.73,227.19 854.97,251.52 857.22,273.03 859.46,290.97 861.71,304.70 863.95,313.74 866.20,317.79 868.44,316.69 870.69,310.48 872.93,299.39 875.18,283.80 877.42,264.25 879.67,241.44 881.91,216.16 884.16,189.29 886.40,161.79 888.65,134.61 890.89,108.70 893.14,84.98 895.38,64.27 897.63,47.30 899.88,34.66 902.12,26.81 904.37,24.01 906.61,26.35 908.86,33.77 911.10,46.00 913.35,62.60 915.59,83.01 917.84,106.50 920.08,132.25 922.33,159.35 924.57,186.87 926.82,213.83 929.06,239.29 931.31,262.35 933.55,282.22 935.80,298.18 938.04,309.69 940.29,316.34 942.53,317.90 944.78,314.31 947.02,305.69 949.27,292.36 951.51,274.77 953.75,253.55 956.00,229.43" />
<circle cx="381.28" cy="30.25" r="4.8" fill="#7b9aff" stroke="#0f1524" stroke-width="1.6" />
<polyline fill="none" stroke="#5ae88e" stroke-width="3" points="58.00,171.00 60.24,159.39 62.49,147.85 64.73,136.46 66.98,125.29 69.22,114.39 71.47,103.86 73.72,93.74 75.96,84.10 78.20,75.01 80.45,66.52 82.69,58.68 84.94,51.54 87.19,45.15 89.43,39.54 91.67,34.76 93.92,30.82 96.17,27.77 98.41,25.60 100.66,24.35 102.90,24.01 105.14,24.59 107.39,26.08 109.64,28.48 111.88,31.77 114.12,35.93 116.37,40.93 118.62,46.75 120.86,53.34 123.10,60.66 125.35,68.68 127.59,77.34 129.84,86.58 132.09,96.34 134.33,106.58 136.57,117.21 138.82,128.18 141.06,139.42 143.31,150.86 145.56,162.42 147.80,174.04 150.04,185.64 152.29,197.14 154.53,208.49 156.78,219.59 159.03,230.40 161.27,240.83 163.51,250.83 165.76,260.33 168.00,269.27 170.25,277.60 172.50,285.26 174.74,292.21 176.99,298.40 179.23,303.79 181.48,308.36 183.72,312.06 185.96,314.89 188.21,316.81 190.45,317.83 192.70,317.93 194.94,317.11 197.19,315.38 199.44,312.74 201.68,309.23 203.93,304.84 206.17,299.62 208.42,293.60 210.66,286.81 212.91,279.30 215.15,271.11 217.39,262.30 219.64,252.92 221.88,243.02 224.13,232.68 226.38,221.95 228.62,210.90 230.87,199.60 233.11,188.12 235.36,176.54 237.60,164.92 239.84,153.34 242.09,141.87 244.33,130.58 246.58,119.55 248.82,108.83 251.07,98.51 253.31,88.63 255.56,79.27 257.81,70.49 260.05,62.33 262.30,54.85 264.54,48.10 266.79,42.11 269.03,36.93 271.27,32.59 273.52,29.11 275.76,26.52 278.01,24.83 280.25,24.05 282.50,24.20 284.75,25.26 286.99,27.22 289.24,30.09 291.48,33.84 293.73,38.44 295.97,43.88 298.22,50.10 300.46,57.08 302.71,64.78 304.95,73.13 307.20,82.10 309.44,91.62 311.68,101.64 313.93,112.10 316.17,122.92 318.42,134.04 320.66,145.39 322.91,156.90 325.15,168.50 327.40,180.12 329.64,191.67 331.89,203.10 334.13,214.33 336.38,225.29 338.62,235.91 340.87,246.12 343.12,255.87 345.36,265.08 347.61,273.71 349.85,281.69 352.10,288.99 354.34,295.54 356.59,301.32 358.83,306.28 361.08,310.40 363.32,313.65 365.56,316.01 367.81,317.46 370.05,318.00 372.30,317.61 374.54,316.32 376.79,314.11 379.03,311.01 381.28,307.04 383.52,302.21 385.77,296.57 388.01,290.14 390.26,282.97 392.50,275.10 394.75,266.58 397.00,257.46 399.24,247.80 401.49,237.66 403.73,227.11 405.98,216.20 408.22,205.01 410.47,193.61 412.71,182.07 414.96,170.46 417.20,158.85 419.45,147.32 421.69,135.94 423.94,124.77 426.18,113.90 428.42,103.38 430.67,93.28 432.91,83.67 435.16,74.60 437.40,66.14 439.65,58.33 441.89,51.23 444.14,44.87 446.38,39.30 448.63,34.56 450.88,30.66 453.12,27.64 455.37,25.52 457.61,24.31 459.86,24.01 462.10,24.64 464.35,26.17 466.59,28.61 468.84,31.94 471.08,36.14 473.33,41.18 475.57,47.04 477.81,53.66 480.06,61.02 482.30,69.07 484.55,77.75 486.79,87.02 489.04,96.81 491.28,107.06 493.53,117.72 495.77,128.70 498.02,139.95 500.26,151.40 502.51,162.96 504.75,174.58 507.00,186.18 509.24,197.68 511.49,209.01 513.73,220.11 515.98,230.89 518.22,241.31 520.47,251.28 522.71,260.76 524.96,269.67 527.20,277.97 529.45,285.60 531.69,292.51 533.94,298.67 536.18,304.02 538.43,308.55 540.67,312.21 542.92,315.00 545.16,316.88 547.41,317.86 549.65,317.91 551.90,317.05 554.14,315.28 556.39,312.60 558.63,309.04 560.88,304.62 563.12,299.36 565.37,293.30 567.62,286.48 569.86,278.94 572.11,270.72 574.35,261.88 576.60,252.47 578.84,242.55 581.09,232.18 583.33,221.44 585.58,210.38 587.82,199.07 590.07,187.58 592.31,176.00 594.56,164.38 596.80,152.80 599.05,141.34 601.29,130.06 603.54,119.04 605.78,108.34 608.03,98.04 610.27,88.19 612.52,78.85 614.76,70.10 617.00,61.97 619.25,54.52 621.50,47.80 623.74,41.85 625.98,36.71 628.23,32.41 630.47,28.97 632.72,26.42 634.96,24.77 637.21,24.04 639.45,24.23 641.70,25.33 643.94,27.34 646.19,30.25 648.43,34.03 650.68,38.68 652.92,44.15 655.17,50.41 657.41,57.43 659.66,65.15 661.90,73.54 664.15,82.53 666.39,92.08 668.64,102.12 670.88,112.59 673.13,123.43 675.38,134.56 677.62,145.92 679.87,157.44 682.11,169.04 684.36,180.66 686.60,192.21 688.85,203.63 691.09,214.85 693.34,225.79 695.58,236.40 697.83,246.59 700.07,256.31 702.32,265.50 704.56,274.09 706.81,282.05 709.05,289.31 711.30,295.83 713.54,301.57 715.79,306.50 718.03,310.57 720.28,313.78 722.52,316.10 724.77,317.51 727.01,318.00 729.25,317.57 731.50,316.23 733.75,313.99 735.99,310.85 738.23,306.83 740.48,301.97 742.72,296.29 744.97,289.83 747.21,282.62 749.46,274.72 751.70,266.17 753.95,257.02 756.19,247.34 758.44,237.18 760.68,226.60 762.93,215.68 765.17,204.48 767.42,193.08 769.66,181.53 771.91,169.92 774.15,158.31 776.40,146.79 778.64,135.41 780.89,124.26 783.13,113.40 785.38,102.90 787.62,92.82 789.87,83.23 792.12,74.19 794.36,65.76 796.61,57.98 798.85,50.91 801.10,44.59 803.34,39.06 805.59,34.35 807.83,30.50 810.08,27.53 812.32,25.45 814.57,24.28 816.81,24.02 819.06,24.69 821.30,26.27 823.55,28.75 825.79,32.12 828.04,36.36 830.28,41.44 832.53,47.33 834.77,53.99 837.02,61.38 839.26,69.46 841.50,78.17 843.75,87.46 846.00,97.28 848.24,107.55 850.48,118.22 852.73,129.22 854.97,140.48 857.22,151.93 859.46,163.51 861.71,175.12 863.95,186.71 866.20,198.21 868.44,209.53 870.69,220.62 872.93,231.39 875.18,241.78 877.42,251.74 879.67,261.19 881.91,270.07 884.16,278.34 886.40,285.94 888.65,292.82 890.89,298.93 893.14,304.25 895.38,308.74 897.63,312.36 899.88,315.11 902.12,316.95 904.37,317.88 906.61,317.89 908.86,316.99 911.10,315.17 913.35,312.45 915.59,308.85 917.84,304.39 920.08,299.10 922.33,293.00 924.57,286.14 926.82,278.57 929.06,270.32 931.31,261.45 933.55,252.02 935.80,242.08 938.04,231.69 940.29,220.93 942.53,209.85 944.78,198.54 947.02,187.05 949.27,175.46 951.51,163.84 953.75,152.27 956.00,140.81" />
<circle cx="381.28" cy="307.04" r="4.8" fill="#5ae88e" stroke="#0f1524" stroke-width="1.6" />
<polyline fill="none" stroke="#33e0f5" stroke-width="3" points="58.00,171.00 60.24,170.63 62.49,170.27 64.73,169.90 66.98,169.53 69.22,169.16 71.47,168.80 73.72,168.43 75.96,168.06 78.20,167.69 80.45,167.33 82.69,166.96 84.94,166.59 87.19,166.22 89.43,165.86 91.67,165.49 93.92,165.12 96.17,164.75 98.41,164.39 100.66,164.02 102.90,163.65 105.14,163.29 107.39,162.92 109.64,162.55 111.88,162.19 114.12,161.82 116.37,161.45 118.62,161.09 120.86,160.72 123.10,160.35 125.35,159.99 127.59,159.62 129.84,159.25 132.09,158.89 134.33,158.52 136.57,158.15 138.82,157.79 141.06,157.42 143.31,157.06 145.56,156.69 147.80,156.32 150.04,155.96 152.29,155.59 154.53,155.23 156.78,154.86 159.03,154.50 161.27,154.13 163.51,153.77 165.76,153.40 168.00,153.04 170.25,152.67 172.50,152.31 174.74,151.94 176.99,151.58 179.23,151.22 181.48,150.85 183.72,150.49 185.96,150.12 188.21,149.76 190.45,149.40 192.70,149.03 194.94,148.67 197.19,148.31 199.44,147.94 201.68,147.58 203.93,147.22 206.17,146.85 208.42,146.49 210.66,146.13 212.91,145.77 215.15,145.41 217.39,145.04 219.64,144.68 221.88,144.32 224.13,143.96 226.38,143.60 228.62,143.24 230.87,142.88 233.11,142.52 235.36,142.16 237.60,141.80 239.84,141.44 242.09,141.08 244.33,140.72 246.58,140.36 248.82,140.00 251.07,139.64 253.31,139.28 255.56,138.92 257.81,138.56 260.05,138.20 262.30,137.85 264.54,137.49 266.79,137.13 269.03,136.77 271.27,136.41 273.52,136.06 275.76,135.70 278.01,135.34 280.25,134.99 282.50,134.63 284.75,134.28 286.99,133.92 289.24,133.56 291.48,133.21 293.73,132.85 295.97,132.50 298.22,132.14 300.46,131.79 302.71,131.44 304.95,131.08 307.20,130.73 309.44,130.38 311.68,130.02 313.93,129.67 316.17,129.32 318.42,128.97 320.66,128.61 322.91,128.26 325.15,127.91 327.40,127.56 329.64,127.21 331.89,126.86 334.13,126.51 336.38,126.16 338.62,125.81 340.87,125.46 343.12,125.11 345.36,124.76 347.61,124.41 349.85,124.06 352.10,123.71 354.34,123.37 356.59,123.02 358.83,122.67 361.08,122.32 363.32,121.98 365.56,121.63 367.81,121.29 370.05,120.94 372.30,120.59 374.54,120.25 376.79,119.90 379.03,119.56 381.28,119.22 383.52,118.87 385.77,118.53 388.01,118.19 390.26,117.84 392.50,117.50 394.75,117.16 397.00,116.82 399.24,116.47 401.49,116.13 403.73,115.79 405.98,115.45 408.22,115.11 410.47,114.77 412.71,114.43 414.96,114.09 417.20,113.76 419.45,113.42 421.69,113.08 423.94,112.74 426.18,112.40 428.42,112.07 430.67,111.73 432.91,111.39 435.16,111.06 437.40,110.72 439.65,110.39 441.89,110.05 444.14,109.72 446.38,109.39 448.63,109.05 450.88,108.72 453.12,108.39 455.37,108.05 457.61,107.72 459.86,107.39 462.10,107.06 464.35,106.73 466.59,106.40 468.84,106.07 471.08,105.74 473.33,105.41 475.57,105.08 477.81,104.75 480.06,104.43 482.30,104.10 484.55,103.77 486.79,103.44 489.04,103.12 491.28,102.79 493.53,102.47 495.77,102.14 498.02,101.82 500.26,101.49 502.51,101.17 504.75,100.85 507.00,100.52 509.24,100.20 511.49,99.88 513.73,99.56 515.98,99.24 518.22,98.92 520.47,98.60 522.71,98.28 524.96,97.96 527.20,97.64 529.45,97.32 531.69,97.00 533.94,96.69 536.18,96.37 538.43,96.05 540.67,95.74 542.92,95.42 545.16,95.11 547.41,94.79 549.65,94.48 551.90,94.16 554.14,93.85 556.39,93.54 558.63,93.23 560.88,92.92 563.12,92.60 565.37,92.29 567.62,91.98 569.86,91.67 572.11,91.36 574.35,91.06 576.60,90.75 578.84,90.44 581.09,90.13 583.33,89.83 585.58,89.52 587.82,89.21 590.07,88.91 592.31,88.61 594.56,88.30 596.80,88.00 599.05,87.69 601.29,87.39 603.54,87.09 605.78,86.79 608.03,86.49 610.27,86.19 612.52,85.89 614.76,85.59 617.00,85.29 619.25,84.99 621.50,84.69 623.74,84.40 625.98,84.10 628.23,83.80 630.47,83.51 632.72,83.21 634.96,82.92 637.21,82.62 639.45,82.33 641.70,82.04 643.94,81.75 646.19,81.45 648.43,81.16 650.68,80.87 652.92,80.58 655.17,80.29 657.41,80.00 659.66,79.72 661.90,79.43 664.15,79.14 666.39,78.85 668.64,78.57 670.88,78.28 673.13,78.00 675.38,77.71 677.62,77.43 679.87,77.15 682.11,76.86 684.36,76.58 686.60,76.30 688.85,76.02 691.09,75.74 693.34,75.46 695.58,75.18 697.83,74.90 700.07,74.62 702.32,74.35 704.56,74.07 706.81,73.79 709.05,73.52 711.30,73.24 713.54,72.97 715.79,72.70 718.03,72.42 720.28,72.15 722.52,71.88 724.77,71.61 727.01,71.34 729.25,71.07 731.50,70.80 733.75,70.53 735.99,70.26 738.23,70.00 740.48,69.73 742.72,69.46 744.97,69.20 747.21,68.93 749.46,68.67 751.70,68.40 753.95,68.14 756.19,67.88 758.44,67.62 760.68,67.36 762.93,67.10 765.17,66.84 767.42,66.58 769.66,66.32 771.91,66.06 774.15,65.81 776.40,65.55 778.64,65.29 780.89,65.04 783.13,64.78 785.38,64.53 787.62,64.28 789.87,64.02 792.12,63.77 794.36,63.52 796.61,63.27 798.85,63.02 801.10,62.77 803.34,62.52 805.59,62.28 807.83,62.03 810.08,61.78 812.32,61.54 814.57,61.29 816.81,61.05 819.06,60.80 821.30,60.56 823.55,60.32 825.79,60.08 828.04,59.84 830.28,59.60 832.53,59.36 834.77,59.12 837.02,58.88 839.26,58.64 841.50,58.41 843.75,58.17 846.00,57.94 848.24,57.70 850.48,57.47 852.73,57.23 854.97,57.00 857.22,56.77 859.46,56.54 861.71,56.31 863.95,56.08 866.20,55.85 868.44,55.62 870.69,55.40 872.93,55.17 875.18,54.94 877.42,54.72 879.67,54.49 881.91,54.27 884.16,54.05 886.40,53.82 888.65,53.60 890.89,53.38 893.14,53.16 895.38,52.94 897.63,52.72 899.88,52.51 902.12,52.29 904.37,52.07 906.61,51.86 908.86,51.64 911.10,51.43 913.35,51.21 915.59,51.00 917.84,50.79 920.08,50.58 922.33,50.37 924.57,50.16 926.82,49.95 929.06,49.74 931.31,49.53 933.55,49.33 935.80,49.12 938.04,48.92 940.29,48.71 942.53,48.51 944.78,48.31 947.02,48.10 949.27,47.90 951.51,47.70 953.75,47.50 956.00,47.30" />
<circle cx="381.28" cy="119.22" r="4.8" fill="#33e0f5" stroke="#0f1524" stroke-width="1.6" />
</svg>